<?xml version="1.0" encoding="UTF-8" standalone="no"?>
<!DOCTYPE svg PUBLIC "-//W3C//DTD SVG 1.1//EN" "http://www.w3.org/Graphics/SVG/1.1/DTD/svg11.dtd">
<svg xmlns="http://www.w3.org/2000/svg" version="1.1" viewBox="0.00 0.00 1024.00 1024.00">
<g stroke-width="2.00" fill="none" stroke-linecap="butt">
<path stroke="#99a2ac" vector-effect="non-scaling-stroke" d="
  M 6.46 1024.00
  L 6.69 1013.49"
/>
<path stroke="#f8debf" vector-effect="non-scaling-stroke" d="
  M 6.69 1013.49
  L 6.43 994.00
  Q 6.42 993.60 6.03 993.58
  L 0.72 993.28
  Q 0.23 993.25 0.26 993.74
  Q 0.31 994.60 0.00 994.94"
/>
<path stroke="#f8debf" vector-effect="non-scaling-stroke" d="
  M 198.03 905.91
  Q 199.54 908.49 206.00 908.50
  C 396.48 908.54 586.96 908.56 777.43 908.50
  C 794.01 908.49 812.19 909.20 829.68 908.57
  Q 833.33 908.44 836.79 907.83
  A 0.64 0.64 0.0 0 0 837.23 906.87
  L 834.81 902.88
  Q 834.52 902.41 834.75 901.91
  Q 834.98 901.41 835.59 901.10"
/>
<path stroke="#838697" vector-effect="non-scaling-stroke" d="
  M 835.59 901.10
  C 842.75 914.47 859.20 917.75 871.98 911.59
  C 889.78 903.01 888.13 884.05 883.75 868.23
  C 867.71 810.34 832.32 757.68 782.07 724.53
  C 759.44 709.61 735.14 697.30 708.68 690.83
  Q 689.51 686.15 669.78 684.61
  Q 669.26 684.57 669.28 684.05
  L 670.13 660.16
  Q 670.17 659.23 670.89 658.65
  C 690.95 642.46 708.23 627.53 723.81 605.11
  C 726.01 601.95 728.98 598.41 730.78 594.23
  Q 730.98 593.76 731.40 594.03
  C 753.10 607.92 780.87 602.98 799.87 586.88
  C 820.63 569.31 825.97 547.12 825.99 520.25
  Q 826.02 467.78 825.99 415.32
  C 825.97 390.27 824.01 364.17 820.51 341.25
  C 812.40 288.13 789.30 235.74 753.74 194.67
  Q 743.68 183.06 734.79 173.97
  Q 681.20 119.17 606.96 97.18
  Q 582.50 89.94 562.25 87.98
  C 532.41 85.08 497.58 85.83 466.77 91.31
  C 368.16 108.82 286.41 180.52 248.94 271.93
  C 232.29 312.55 223.37 358.15 223.17 403.23
  Q 222.88 466.02 223.04 528.80
  C 223.09 552.86 231.60 572.80 249.92 588.31
  Q 273.37 608.16 303.71 599.77
  Q 309.25 598.24 313.71 594.61
  Q 314.06 594.33 314.29 594.71
  Q 329.94 621.36 352.75 642.25
  Q 361.08 649.87 370.40 657.67
  A 4.25 4.22 -70.7 0 1 371.92 660.86
  L 372.26 683.30
  Q 372.27 683.86 371.71 683.91
  Q 357.42 685.20 353.26 685.81
  C 263.54 698.99 189.77 765.51 160.68 850.43
  C 155.06 866.84 146.36 885.85 154.72 902.16
  C 162.81 917.94 186.80 917.51 198.03 905.91"
/>
<path stroke="#7e6656" vector-effect="non-scaling-stroke" d="
  M 835.59 901.10
  Q 831.52 893.92 830.39 888.28
  Q 822.70 849.98 800.41 819.34
  C 771.98 780.27 730.71 749.08 682.25 739.72
  Q 667.66 736.90 652.83 735.32
  Q 652.32 735.27 652.04 735.69
  C 626.04 775.42 587.03 798.06 539.79 801.32
  C 497.63 804.23 458.49 799.05 423.68 773.97
  C 410.73 764.64 394.32 749.77 388.13 734.83
  Q 387.92 734.32 387.45 734.61
  Q 385.49 735.83 383.76 736.00
  Q 373.97 736.96 364.27 738.28
  C 314.55 745.04 271.94 774.23 242.05 813.59
  C 224.13 837.20 212.35 863.91 204.28 893.76
  Q 202.73 899.49 198.03 905.91"
/>
<path stroke="#1f2a43" vector-effect="non-scaling-stroke" d="
  M 385.15 358.55
  C 405.55 354.33 421.67 366.74 437.55 376.96
  Q 446.07 382.44 460.23 385.84
  C 492.64 393.60 526.15 394.89 559.25 390.22
  C 598.48 384.69 641.16 367.61 671.02 341.18
  C 684.88 328.91 698.15 318.76 717.55 319.64
  C 735.17 320.44 752.73 331.30 758.61 348.75
  A 1.22 1.22 0.0 0 0 760.94 348.67
  C 761.31 347.26 761.65 345.89 761.49 344.40
  C 755.57 288.71 723.46 233.33 681.06 197.33
  C 650.18 171.12 611.06 151.45 571.24 144.52
  C 500.37 132.20 427.52 146.97 371.05 193.06
  C 315.38 238.51 284.67 308.93 280.88 379.23
  C 279.39 406.86 280.02 434.67 279.97 462.33
  Q 279.97 462.95 280.25 462.49
  Q 280.34 462.34 280.34 462.08
  C 280.41 453.48 294.33 439.23 300.25 433.25
  Q 331.31 401.92 362.61 370.87
  Q 372.38 361.19 385.15 358.55"
/>
<path stroke="#838697" vector-effect="non-scaling-stroke" d="
  M 713.55 377.50
  Q 692.96 394.11 685.43 399.17
  C 657.94 417.66 627.92 431.88 595.50 439.96
  C 529.74 456.33 456.46 452.93 396.80 418.88
  A 0.73 0.72 -51.3 0 0 395.93 418.98
  Q 367.65 445.62 340.09 473.02
  C 336.96 476.13 337.09 476.19 337.06 480.66
  C 336.97 498.97 339.05 520.12 346.02 537.23
  C 359.70 570.83 384.83 604.76 415.74 625.14
  C 429.07 633.93 433.29 640.59 433.49 657.05
  Q 433.65 670.24 434.05 683.43
  C 435.40 728.11 477.54 745.67 515.02 747.55
  C 553.29 749.47 603.90 732.40 606.53 686.32
  Q 607.34 672.18 607.34 658.00
  C 607.34 648.88 608.64 640.11 614.39 633.11
  C 619.04 627.45 629.02 621.78 635.04 617.28
  C 662.15 597.01 685.13 566.76 698.68 535.71
  C 706.25 518.34 713.30 499.10 714.01 480.25
  C 714.50 467.11 714.19 452.06 714.46 438.01
  Q 715.05 407.84 713.96 377.69
  Q 713.94 377.19 713.55 377.50"
/>
<path stroke="#1f2a43" vector-effect="non-scaling-stroke" d="
  M 277.61 518.35
  C 276.80 526.40 277.41 541.41 286.78 545.10
  A 0.71 0.71 0.0 0 0 287.66 544.79
  C 288.42 543.48 287.51 541.74 287.27 540.57
  C 283.07 519.47 282.06 504.60 280.15 486.27
  Q 280.12 485.98 279.92 486.19
  Q 279.82 486.31 279.81 486.50
  Q 279.20 502.46 277.61 518.35"
/>
<path stroke="#1f2a43" vector-effect="non-scaling-stroke" d="
  M 757.82 543.76
  C 763.00 545.10 766.74 545.55 769.02 539.75
  C 773.28 528.93 772.93 517.47 771.16 506.41
  C 769.95 498.91 769.36 493.85 768.56 487.53
  Q 768.52 487.20 768.29 487.43
  Q 768.14 487.57 768.16 487.81
  C 768.58 497.34 767.46 505.50 764.93 517.47
  C 762.61 528.48 761.37 534.92 757.54 543.17
  Q 757.33 543.63 757.82 543.76"
/>
<path stroke="#94826b" vector-effect="non-scaling-stroke" d="
  M 6.69 1013.49
  L 0.00 1013.62"
/>
</g>
<path fill="#fdfeff" d="
  M 0.00 0.00
  L 1024.00 0.00
  L 1024.00 1024.00
  L 6.46 1024.00
  L 6.69 1013.49
  L 6.43 994.00
  Q 6.42 993.60 6.03 993.58
  L 0.72 993.28
  Q 0.23 993.25 0.26 993.74
  Q 0.31 994.60 0.00 994.94
  L 0.00 0.00
  Z
  M 198.03 905.91
  Q 199.54 908.49 206.00 908.50
  C 396.48 908.54 586.96 908.56 777.43 908.50
  C 794.01 908.49 812.19 909.20 829.68 908.57
  Q 833.33 908.44 836.79 907.83
  A 0.64 0.64 0.0 0 0 837.23 906.87
  L 834.81 902.88
  Q 834.52 902.41 834.75 901.91
  Q 834.98 901.41 835.59 901.10
  C 842.75 914.47 859.20 917.75 871.98 911.59
  C 889.78 903.01 888.13 884.05 883.75 868.23
  C 867.71 810.34 832.32 757.68 782.07 724.53
  C 759.44 709.61 735.14 697.30 708.68 690.83
  Q 689.51 686.15 669.78 684.61
  Q 669.26 684.57 669.28 684.05
  L 670.13 660.16
  Q 670.17 659.23 670.89 658.65
  C 690.95 642.46 708.23 627.53 723.81 605.11
  C 726.01 601.95 728.98 598.41 730.78 594.23
  Q 730.98 593.76 731.40 594.03
  C 753.10 607.92 780.87 602.98 799.87 586.88
  C 820.63 569.31 825.97 547.12 825.99 520.25
  Q 826.02 467.78 825.99 415.32
  C 825.97 390.27 824.01 364.17 820.51 341.25
  C 812.40 288.13 789.30 235.74 753.74 194.67
  Q 743.68 183.06 734.79 173.97
  Q 681.20 119.17 606.96 97.18
  Q 582.50 89.94 562.25 87.98
  C 532.41 85.08 497.58 85.83 466.77 91.31
  C 368.16 108.82 286.41 180.52 248.94 271.93
  C 232.29 312.55 223.37 358.15 223.17 403.23
  Q 222.88 466.02 223.04 528.80
  C 223.09 552.86 231.60 572.80 249.92 588.31
  Q 273.37 608.16 303.71 599.77
  Q 309.25 598.24 313.71 594.61
  Q 314.06 594.33 314.29 594.71
  Q 329.94 621.36 352.75 642.25
  Q 361.08 649.87 370.40 657.67
  A 4.25 4.22 -70.7 0 1 371.92 660.86
  L 372.26 683.30
  Q 372.27 683.86 371.71 683.91
  Q 357.42 685.20 353.26 685.81
  C 263.54 698.99 189.77 765.51 160.68 850.43
  C 155.06 866.84 146.36 885.85 154.72 902.16
  C 162.81 917.94 186.80 917.51 198.03 905.91
  Z"
/>
<path fill="#080e2e" d="
  M 835.59 901.10
  Q 831.52 893.92 830.39 888.28
  Q 822.70 849.98 800.41 819.34
  C 771.98 780.27 730.71 749.08 682.25 739.72
  Q 667.66 736.90 652.83 735.32
  Q 652.32 735.27 652.04 735.69
  C 626.04 775.42 587.03 798.06 539.79 801.32
  C 497.63 804.23 458.49 799.05 423.68 773.97
  C 410.73 764.64 394.32 749.77 388.13 734.83
  Q 387.92 734.32 387.45 734.61
  Q 385.49 735.83 383.76 736.00
  Q 373.97 736.96 364.27 738.28
  C 314.55 745.04 271.94 774.23 242.05 813.59
  C 224.13 837.20 212.35 863.91 204.28 893.76
  Q 202.73 899.49 198.03 905.91
  C 186.80 917.51 162.81 917.94 154.72 902.16
  C 146.36 885.85 155.06 866.84 160.68 850.43
  C 189.77 765.51 263.54 698.99 353.26 685.81
  Q 357.42 685.20 371.71 683.91
  Q 372.27 683.86 372.26 683.30
  L 371.92 660.86
  A 4.25 4.22 -70.7 0 0 370.40 657.67
  Q 361.08 649.87 352.75 642.25
  Q 329.94 621.36 314.29 594.71
  Q 314.06 594.33 313.71 594.61
  Q 309.25 598.24 303.71 599.77
  Q 273.37 608.16 249.92 588.31
  C 231.60 572.80 223.09 552.86 223.04 528.80
  Q 222.88 466.02 223.17 403.23
  C 223.37 358.15 232.29 312.55 248.94 271.93
  C 286.41 180.52 368.16 108.82 466.77 91.31
  C 497.58 85.83 532.41 85.08 562.25 87.98
  Q 582.50 89.94 606.96 97.18
  Q 681.20 119.17 734.79 173.97
  Q 743.68 183.06 753.74 194.67
  C 789.30 235.74 812.40 288.13 820.51 341.25
  C 824.01 364.17 825.97 390.27 825.99 415.32
  Q 826.02 467.78 825.99 520.25
  C 825.97 547.12 820.63 569.31 799.87 586.88
  C 780.87 602.98 753.10 607.92 731.40 594.03
  Q 730.98 593.76 730.78 594.23
  C 728.98 598.41 726.01 601.95 723.81 605.11
  C 708.23 627.53 690.95 642.46 670.89 658.65
  Q 670.17 659.23 670.13 660.16
  L 669.28 684.05
  Q 669.26 684.57 669.78 684.61
  Q 689.51 686.15 708.68 690.83
  C 735.14 697.30 759.44 709.61 782.07 724.53
  C 832.32 757.68 867.71 810.34 883.75 868.23
  C 888.13 884.05 889.78 903.01 871.98 911.59
  C 859.20 917.75 842.75 914.47 835.59 901.10
  Z
  M 385.15 358.55
  C 405.55 354.33 421.67 366.74 437.55 376.96
  Q 446.07 382.44 460.23 385.84
  C 492.64 393.60 526.15 394.89 559.25 390.22
  C 598.48 384.69 641.16 367.61 671.02 341.18
  C 684.88 328.91 698.15 318.76 717.55 319.64
  C 735.17 320.44 752.73 331.30 758.61 348.75
  A 1.22 1.22 0.0 0 0 760.94 348.67
  C 761.31 347.26 761.65 345.89 761.49 344.40
  C 755.57 288.71 723.46 233.33 681.06 197.33
  C 650.18 171.12 611.06 151.45 571.24 144.52
  C 500.37 132.20 427.52 146.97 371.05 193.06
  C 315.38 238.51 284.67 308.93 280.88 379.23
  C 279.39 406.86 280.02 434.67 279.97 462.33
  Q 279.97 462.95 280.25 462.49
  Q 280.34 462.34 280.34 462.08
  C 280.41 453.48 294.33 439.23 300.25 433.25
  Q 331.31 401.92 362.61 370.87
  Q 372.38 361.19 385.15 358.55
  Z
  M 713.55 377.50
  Q 692.96 394.11 685.43 399.17
  C 657.94 417.66 627.92 431.88 595.50 439.96
  C 529.74 456.33 456.46 452.93 396.80 418.88
  A 0.73 0.72 -51.3 0 0 395.93 418.98
  Q 367.65 445.62 340.09 473.02
  C 336.96 476.13 337.09 476.19 337.06 480.66
  C 336.97 498.97 339.05 520.12 346.02 537.23
  C 359.70 570.83 384.83 604.76 415.74 625.14
  C 429.07 633.93 433.29 640.59 433.49 657.05
  Q 433.65 670.24 434.05 683.43
  C 435.40 728.11 477.54 745.67 515.02 747.55
  C 553.29 749.47 603.90 732.40 606.53 686.32
  Q 607.34 672.18 607.34 658.00
  C 607.34 648.88 608.64 640.11 614.39 633.11
  C 619.04 627.45 629.02 621.78 635.04 617.28
  C 662.15 597.01 685.13 566.76 698.68 535.71
  C 706.25 518.34 713.30 499.10 714.01 480.25
  C 714.50 467.11 714.19 452.06 714.46 438.01
  Q 715.05 407.84 713.96 377.69
  Q 713.94 377.19 713.55 377.50
  Z
  M 277.61 518.35
  C 276.80 526.40 277.41 541.41 286.78 545.10
  A 0.71 0.71 0.0 0 0 287.66 544.79
  C 288.42 543.48 287.51 541.74 287.27 540.57
  C 283.07 519.47 282.06 504.60 280.15 486.27
  Q 280.12 485.98 279.92 486.19
  Q 279.82 486.31 279.81 486.50
  Q 279.20 502.46 277.61 518.35
  Z
  M 757.82 543.76
  C 763.00 545.10 766.74 545.55 769.02 539.75
  C 773.28 528.93 772.93 517.47 771.16 506.41
  C 769.95 498.91 769.36 493.85 768.56 487.53
  Q 768.52 487.20 768.29 487.43
  Q 768.14 487.57 768.16 487.81
  C 768.58 497.34 767.46 505.50 764.93 517.47
  C 762.61 528.48 761.37 534.92 757.54 543.17
  Q 757.33 543.63 757.82 543.76
  Z"
/>
<path fill="#354658" d="
  M 385.15 358.55
  Q 372.38 361.19 362.61 370.87
  Q 331.31 401.92 300.25 433.25
  C 294.33 439.23 280.41 453.48 280.34 462.08
  Q 280.34 462.34 280.25 462.49
  Q 279.97 462.95 279.97 462.33
  C 280.02 434.67 279.39 406.86 280.88 379.23
  C 284.67 308.93 315.38 238.51 371.05 193.06
  C 427.52 146.97 500.37 132.20 571.24 144.52
  C 611.06 151.45 650.18 171.12 681.06 197.33
  C 723.46 233.33 755.57 288.71 761.49 344.40
  C 761.65 345.89 761.31 347.26 760.94 348.67
  A 1.22 1.22 0.0 0 1 758.61 348.75
  C 752.73 331.30 735.17 320.44 717.55 319.64
  C 698.15 318.76 684.88 328.91 671.02 341.18
  C 641.16 367.61 598.48 384.69 559.25 390.22
  C 526.15 394.89 492.64 393.60 460.23 385.84
  Q 446.07 382.44 437.55 376.96
  C 421.67 366.74 405.55 354.33 385.15 358.55
  Z"
/>
<path fill="#fdfeff" d="
  M 713.96 377.69
  Q 715.05 407.84 714.46 438.01
  C 714.19 452.06 714.50 467.11 714.01 480.25
  C 713.30 499.10 706.25 518.34 698.68 535.71
  C 685.13 566.76 662.15 597.01 635.04 617.28
  C 629.02 621.78 619.04 627.45 614.39 633.11
  C 608.64 640.11 607.34 648.88 607.34 658.00
  Q 607.34 672.18 606.53 686.32
  C 603.90 732.40 553.29 749.47 515.02 747.55
  C 477.54 745.67 435.40 728.11 434.05 683.43
  Q 433.65 670.24 433.49 657.05
  C 433.29 640.59 429.07 633.93 415.74 625.14
  C 384.83 604.76 359.70 570.83 346.02 537.23
  C 339.05 520.12 336.97 498.97 337.06 480.66
  C 337.09 476.19 336.96 476.13 340.09 473.02
  Q 367.65 445.62 395.93 418.98
  A 0.73 0.72 -51.3 0 1 396.80 418.88
  C 456.46 452.93 529.74 456.33 595.50 439.96
  C 627.92 431.88 657.94 417.66 685.43 399.17
  Q 692.96 394.11 713.55 377.50
  Q 713.94 377.19 713.96 377.69
  Z"
/>
<path fill="#354658" d="
  M 286.78 545.10
  C 277.41 541.41 276.80 526.40 277.61 518.35
  Q 279.20 502.46 279.81 486.50
  Q 279.82 486.31 279.92 486.19
  Q 280.12 485.98 280.15 486.27
  C 282.06 504.60 283.07 519.47 287.27 540.57
  C 287.51 541.74 288.42 543.48 287.66 544.79
  A 0.71 0.71 0.0 0 1 286.78 545.10
  Z"
/>
<path fill="#354658" d="
  M 757.82 543.76
  Q 757.33 543.63 757.54 543.17
  C 761.37 534.92 762.61 528.48 764.93 517.47
  C 767.46 505.50 768.58 497.34 768.16 487.81
  Q 768.14 487.57 768.29 487.43
  Q 768.52 487.20 768.56 487.53
  C 769.36 493.85 769.95 498.91 771.16 506.41
  C 772.93 517.47 773.28 528.93 769.02 539.75
  C 766.74 545.55 763.00 545.10 757.82 543.76
  Z"
/>
<path fill="#f3bd7e" d="
  M 835.59 901.10
  Q 834.98 901.41 834.75 901.91
  Q 834.52 902.41 834.81 902.88
  L 837.23 906.87
  A 0.64 0.64 0.0 0 1 836.79 907.83
  Q 833.33 908.44 829.68 908.57
  C 812.19 909.20 794.01 908.49 777.43 908.50
  C 586.96 908.56 396.48 908.54 206.00 908.50
  Q 199.54 908.49 198.03 905.91
  Q 202.73 899.49 204.28 893.76
  C 212.35 863.91 224.13 837.20 242.05 813.59
  C 271.94 774.23 314.55 745.04 364.27 738.28
  Q 373.97 736.96 383.76 736.00
  Q 385.49 735.83 387.45 734.61
  Q 387.92 734.32 388.13 734.83
  C 394.32 749.77 410.73 764.64 423.68 773.97
  C 458.49 799.05 497.63 804.23 539.79 801.32
  C 587.03 798.06 626.04 775.42 652.04 735.69
  Q 652.32 735.27 652.83 735.32
  Q 667.66 736.90 682.25 739.72
  C 730.71 749.08 771.98 780.27 800.41 819.34
  Q 822.70 849.98 830.39 888.28
  Q 831.52 893.92 835.59 901.10
  Z"
/>
<path fill="#f3bd7e" d="
  M 6.69 1013.49
  L 0.00 1013.62
  L 0.00 994.94
  Q 0.31 994.60 0.26 993.74
  Q 0.23 993.25 0.72 993.28
  L 6.03 993.58
  Q 6.42 993.60 6.43 994.00
  L 6.69 1013.49
  Z"
/>
<path fill="#354658" d="
  M 6.69 1013.49
  L 6.46 1024.00
  L 0.00 1024.00
  L 0.00 1013.62
  L 6.69 1013.49
  Z"
/>
</svg>
